<svg xmlns="http://www.w3.org/2000/svg" viewBox="0 0 135 40" role="img" aria-label="Get it on Google Play">
  <rect width="135" height="40" rx="8" fill="#000"/>
  <rect x=".5" y=".5" width="134" height="39" rx="7.5" fill="none" stroke="#a1a1aa" stroke-width="1"/>
  <path d="M16.1 8.4 26.4 14l-3.4 3.4-6.9-9z" fill="#32A071"/>
  <path d="M16.1 31.6 26.4 26l-3.4-3.4-6.9 9z" fill="#F8C01C"/>
  <path d="M26.4 14 16.1 8.4c-.5-.3-1.1.1-1.1.7v22c0 .6.6 1 1.1.7L26.4 26l-4.1-4.1 4.1-3.9z" fill="#4285F4"/>
  <path d="m26.4 14-4.1 4-4.1 4 4.1 4 4.1-4c.7-.6.7-1.8 0-2.4L26.4 14z" fill="#E94235"/>
  <text x="33" y="15" fill="#fff" font-family="Helvetica, Arial, sans-serif" font-size="7" letter-spacing="0.8">GET IT ON</text>
  <text x="33" y="29" fill="#fff" font-family="Helvetica, Arial, sans-serif" font-size="13" font-weight="600">Google Play</text>
</svg>
